# xmcd
#
# Track frame offsets:
#	150
#	12357
#	24323
#	38924
#	49554
#	73055
#	87652
#	103297
#	119303
#	135524
#	159821
#
# Disc length: 2404 seconds
#
# Revision: 0
# Processed by: cddbd v1.5.1PL2 Copyright (c) Steve Scherf et al.
# Submitted via: EasyCDDAExtractor 9.0.0.1
#
DISCID=8a09620b
DTITLE=KölnKalk Bluesband - Et es wie et es
DYEAR=2005
DGENRE=Blues
TTITLE0=Schäl Sick
TTITLE1=Jode Naach
TTITLE2=Hey Bossman
TTITLE3=Ich bin der King he
TTITLE4=Ruf doch ens an
TTITLE5=Der Schuss hät Kraff
TTITLE6=Ich will noh hus
TTITLE7=Weißt Du nit
TTITLE8=Wer kömmert sich
TTITLE9=Bedressene Mondag
TTITLE10=Ich muss jetz jonn
EXTD=
EXTT0=
EXTT1=
EXTT2=
EXTT3=
EXTT4=
EXTT5=
EXTT6=
EXTT7=
EXTT8=
EXTT9=
EXTT10=
PLAYORDER=
